<?xml version="1.0" encoding="UTF-8"?>
<svg viewBox="0 0 512 512" xmlns="http://www.w3.org/2000/svg">
<g data-name="Layer 2">
<path d="m256 456c-110.42 0-200.23-89.7-200.23-200s89.803-200 200.23-200 200.23 89.7 200.23 200-89.803 200-200.23 200zm0-335.67c-71.891 0-132.32 61.961-132.32 135.67s60.432 135.67 132.32 135.67 132.32-61.961 132.32-135.67-60.433-135.67-132.32-135.67z" fill="#8fc23f"/>
<path d="m283.1 453.92a178.33 178.33 0 0 1-27.1 2.08c-110.43 0-200.23-89.7-200.23-200s89.802-200 200.23-200a178.33 178.33 0 0 1 27.1 2.08c-96.778 14.02-180.33 97.42-180.33 197.92s83.55 183.9 180.33 197.92z" fill="#00b40a" opacity=".45"/>
<path d="m256 462c-113.71 0-206.23-92.411-206.23-206s92.514-206 206.23-206 206.23 92.411 206.23 206-92.514 206-206.23 206zm0-400c-107.1 0-194.23 87.028-194.23 194s87.128 194 194.23 194 194.23-87.028 194.23-194-87.128-194-194.23-194zm0 335.67c-36.4 0-71-14.918-97.417-42a141.87 141.87 0 0 1 0-199.33c26.417-27.091 61.017-42.009 97.417-42.009s71 14.918 97.417 42.005a141.87 141.87 0 0 1 0 199.33c-26.417 27.086-61.017 42.004-97.417 42.004zm0-271.34c-68.475 0-126.32 59.381-126.32 129.67s57.849 129.67 126.32 129.67 126.32-59.381 126.32-129.67-57.849-129.67-126.32-129.67z"/>
</g>
</svg>