<?xml version="1.0" encoding="UTF-8"?>
<svg enable-background="new 0 0 512 512" version="1.1" viewBox="0 0 512 512" xml:space="preserve" xmlns="http://www.w3.org/2000/svg">
<circle cx="256" cy="256" r="256" fill="#5F98D1"/>
<path d="m415.81 147.47h-320.26l116.02 120.81 33.48 33.9c-18.216-4.164-19.343-6.759-27.415-13.349-4.234-3.457-12.414-12.852-24.838-25.54-38.781-39.601-104.59-106.8-104.59-106.8v198.82l8.265 8.265-0.925 0.963 147.12 147.12c4.412 0.226 8.852 0.343 13.32 0.343 141.38 0 256-114.62 256-256 0-4.246-0.11-8.466-0.313-12.661l-95.874-95.873z" fill="#3A6DA1"/>
<g fill="#fff">
	<polygon points="88.217 156.48 88.217 355.31 185.18 255.49"/>
	<polygon points="423.78 156.48 423.78 355.31 327.31 255.9"/>
	<path d="m95.558 147.47h320.26l-125.86 131.06c-8.958 9.327-21.331 14.599-34.262 14.599s-25.304-5.272-34.262-14.599l-125.87-131.06z"/>
	<path d="m297.21 285.5c-10.799 11.244-25.933 17.694-41.523 17.694-15.589 0-30.724-6.448-41.522-17.693l-21.349-22.23-97.257 101.27h320.26l-97.256-101.27-21.348 22.229z"/>
</g>















</svg>