<?xml version="1.0" encoding="UTF-8"?>
<svg class="" enable-background="new 0 0 512 512" version="1.1" viewBox="0 0 512 512" xml:space="preserve" xmlns="http://www.w3.org/2000/svg"><circle class="" cx="256" cy="256" r="256" fill="#8eb1d3" style="" data-original="#ff314f"/><path class="" d="m275.17 511.29c131.43-9.728 235.23-118.69 236.8-252.24l-122.62-122.62-6.244 9.161-31.384-31.384-13.54 18.822 31.808 31.808-57.923 84.98-135.61-135.61-13.972 58.039 41.681 40.443-76.207 151.77 147.21 146.83z" fill="#8eb1d3" style="" data-original="#a30f44"/><path class="" d="m371.23 369.78h-230.46c-10.004 0-18.115-8.109-18.115-18.115v-181.9h266.68v181.9c1e-3 10.006-8.109 18.115-18.112 18.115z" fill="#fff" style="" data-original="#ffffff"/><path class="" d="m255.43 169.76v200.01h115.8c10.004 0 18.115-8.111 18.115-18.115v-181.9h-133.92z" fill="#d0d1d3" style="" data-original="#d0d1d3"/><path d="m122.66 136.43h266.69v66.67h-266.69z" fill="#fee187" style="" data-original="#fee187"/><path class="" d="m255.43 136.43h133.91v66.67h-133.91z" fill="#ffc61b" style="" data-original="#ffc61b"/><path class="" d="m160.29 114.21h16.163v44.447h-16.163zm175.27 0h16.163v44.447h-16.163z" fill="#386895" style="" data-original="#386895"/><path class="" d="m144.58 222.82h28.444v28.444h-28.444zm48.597 0h28.444v28.444h-28.444zm48.597 0h13.648v28.444h-13.648zm13.653 0h14.796v28.444h-14.796z" fill="#ff7f4f" style="" data-original="#ff7f4f"/><path class="" d="m290.38 222.82h28.444v28.444h-28.444zm48.579 0h28.444v28.444h-28.444z" fill="#d35933" style="" data-original="#d35933"/><path class="" d="m144.58 267.84h28.444v28.444h-28.444zm48.597 0h28.444v28.444h-28.444zm48.597 0h13.648v28.444h-13.648zm13.653 0h14.796v28.444h-14.796z" fill="#ff7f4f" style="" data-original="#ff7f4f"/><path class="" d="m290.38 267.84h28.444v28.444h-28.444zm48.579 0h28.444v28.444h-28.444z" fill="#d35933" style="" data-original="#d35933"/><path class="" d="m144.58 312.89h28.444v28.444h-28.444zm48.597 0h28.444v28.444h-28.444zm48.597 0h28.444v28.444h-28.444z" fill="#ff7f4f" style="" data-original="#ff7f4f"/><path class="" d="m255.43 222.82h14.796v28.444h-14.796zm0 45.028h14.796v28.444h-14.796zm0 45.046h14.796v28.444h-14.796zm34.944 0h28.444v28.444h-28.444zm48.579 0h28.444v28.444h-28.444z" fill="#d35933" style="" data-original="#d35933"/></svg>