<?xml version="1.0" encoding="UTF-8"?>
<svg width="512pt" height="512pt" viewBox="0 0 512 512" xmlns="http://www.w3.org/2000/svg">
<path d="m512 256c0 141.39-114.61 256-256 256s-256-114.61-256-256 114.61-256 256-256 256 114.61 256 256z" fill="#009ae5"/>
<path d="m506.05 311.05-113.45-112.77c-3.5586-3.8945-7.7461-7.2969-12.543-10.164-8.2383-4.9141-19.223-7.4023-32.648-7.4023-18.035 0-34.215 3.3828-48.09 10.062-4.7344 2.2773-9.1211 4.9023-13.152 7.8555l-16.664-14.027h-20.477l-76.742-76.703c-6.7148-7.4102-16.406-12.074-27.172-12.074h-0.41797c-20.234 0-36.695 16.461-36.695 36.695 0 9.7656 3.8398 18.648 10.086 25.227l26.84 26.852h-32.598v207.16l119.05 119.05c8.1016 0.77344 16.312 1.1836 24.617 1.1836 122.48 0 224.86-86.027 250.05-200.95z" fill="#0070b4"/>
<g fill="#fff">
<path d="m145.11 95.832h-0.41797c-20.234 0-36.695 16.461-36.695 36.695s16.461 36.695 36.695 36.695h0.41797c20.234 0 36.695-16.461 36.695-36.695s-16.461-36.695-36.695-36.695z"/>
<path d="m112.32 184.61h65.156v207.15h-65.156z"/>
<path d="m408.18 232.91c-1.4492-9.2148-4.4531-17.824-8.9336-25.594-4.5156-7.832-10.973-14.289-19.184-19.195-8.2383-4.9141-19.223-7.4023-32.648-7.4023-18.035 0-34.215 3.3828-48.09 10.062-12.371 5.9492-22.383 14.246-29.816 24.691v-30.867h-58.93v207.16h65.152v-118.31c1.75-4.9336 4.207-9.5703 7.3047-13.781 3.1406-4.2734 6.7773-8.0391 10.812-11.191 4.0195-3.1445 8.2227-5.6289 12.496-7.3867 4.2188-1.7344 8.4805-2.6172 12.672-2.6172 7.9141 0 14.102 2.8203 18.918 8.6172 4.8086 5.8047 7.25 15.375 7.25 28.445v116.22h65.152v-132.17c0-8.5586-0.72266-17.535-2.1562-26.68z"/>
</g>
<path d="m410.33 259.59v132.17h-65.148v-116.22c0-13.07-2.4414-22.641-7.25-28.438-4.8203-5.8008-11.008-8.6211-18.918-8.6211-4.1914 0-8.4531 0.87891-12.672 2.6094-4.2695 1.7617-8.4805 4.25-12.5 7.3906-4.0312 3.1484-7.668 6.918-10.809 11.191-3.1016 4.207-5.5508 8.8477-7.3008 13.777v118.31h-19.73v-207.15h13.5v30.859c7.4414-10.438 17.449-18.738 29.82-24.688 13.871-6.6797 30.051-10.062 48.09-10.062 13.43 0 24.41 2.4922 32.648 7.4023 8.2109 4.9102 14.672 11.367 19.18 19.199 4.4805 7.7695 7.4922 16.379 8.9414 25.59 1.4297 9.1406 2.1484 18.121 2.1484 26.68z" fill="#fff5cb"/>
</svg>