<?xml version="1.0" encoding="UTF-8"?>
<svg enable-background="new 0 0 512 512" version="1.1" viewBox="0 0 512 512" xml:space="preserve" xmlns="http://www.w3.org/2000/svg">
<circle cx="256" cy="256" r="256" fill="#6AAF50"/>
<path d="m135.69 102.21-8e-3 4e-3c-29.639 15.464-42.074 51.222-28.494 81.77 19.547 43.975 45.793 84.198 77.468 119.42l183.01 183.01c39.82-19.335 73.863-48.69 98.876-84.783l-58.697-58.697c-2.262-3.334-5.169-6.299-8.681-8.681l-221.42-221.42c-9.294-13.695-27.382-18.283-42.054-10.627z" fill="#4D8538"/>
<path d="m349.59 300.61c-8.192-5.559-18.954-5.531-27.116 0.071l-11.752 8.066c-13.09 8.984-30.498 8.496-43.08-1.187-11.858-9.127-23.176-18.913-33.924-29.283-10.371-10.748-20.156-22.065-29.283-33.924-9.684-12.581-10.171-29.989-1.187-43.08l8.066-11.752c5.601-8.162 5.63-18.924 0.071-27.116l-33.64-49.575c-9.293-13.694-27.381-18.282-42.054-10.627l-9e-3 4e-3c-29.639 15.464-42.074 51.222-28.494 81.77 19.547 43.975 45.793 84.198 77.468 119.42l23.939 23.939c35.226 31.674 75.449 57.921 119.42 77.468 30.549 13.58 66.306 1.145 81.77-28.494l4e-3 -9e-3c7.655-14.672 3.068-32.761-10.627-42.054l-49.575-33.64z" fill="#fff"/>















</svg>