<?xml version="1.0" encoding="UTF-8"?>
<svg enable-background="new 0 0 512 512" viewBox="0 0 512 512" xmlns="http://www.w3.org/2000/svg">
<g clip-rule="evenodd" fill-rule="evenodd">
<path d="m256 512c141 0 256-115 256-256s-115-256-256-256-256 115-256 256 115 256 256 256z" fill="#ff4646"/>
<path d="m135.5 81.02h196.7c10.23 0 18.62 8.36 18.62 18.6v268.47c0 10.23-8.39 18.62-18.62 18.62h-196.7c-10.23 0-18.6-8.39-18.6-18.62v-268.48c0-10.23 8.37-18.59 18.6-18.59z" fill="#adb4ae"/>
<path d="m179.8 125.32h196.7c10.23 0 18.62 8.36 18.62 18.6v268.47c0 10.23-8.39 18.62-18.62 18.62h-196.7c-10.23 0-18.6-8.39-18.6-18.62v-268.47c.01-10.23 8.37-18.6 18.6-18.6z" fill="#e4f0e6"/>
<path d="m192.67 151h32.74c3.17 0 5.78 2.61 5.78 5.78v32.74c0 3.17-2.61 5.78-5.78 5.78h-32.74c-3.17 0-5.78-2.61-5.78-5.78v-32.74c0-3.17 2.61-5.78 5.78-5.78z" fill="#ff4155"/>
<path d="m192.67 221.02h32.74c3.17 0 5.78 2.58 5.78 5.75v32.77c0 3.17-2.61 5.75-5.78 5.75h-32.74c-3.17 0-5.78-2.58-5.78-5.75v-32.77c0-3.17 2.61-5.75 5.78-5.75z" fill="#ff4155"/>
<path d="m192.67 291.01h32.74c3.17 0 5.78 2.61 5.78 5.78v32.74c0 3.17-2.61 5.78-5.78 5.78h-32.74c-3.17 0-5.78-2.61-5.78-5.78v-32.74c0-3.17 2.61-5.78 5.78-5.78z" fill="#ff4155"/>
<path d="m192.67 361h32.74c3.17 0 5.78 2.61 5.78 5.78v32.74c0 3.2-2.61 5.78-5.78 5.78h-32.74c-3.17 0-5.78-2.58-5.78-5.78v-32.74c0-3.18 2.61-5.78 5.78-5.78z" fill="#ff4155"/>
</g>
<path d="m264.42 165.09c-4.42 0-7.99-3.57-7.99-7.99s3.57-7.99 7.99-7.99h97.48c4.39 0 7.99 3.57 7.99 7.99s-3.6 7.99-7.99 7.99z" fill="#3c3"/>
<path d="m264.42 197.21c-4.42 0-7.99-3.57-7.99-7.99s3.57-7.99 7.99-7.99h97.48c4.39 0 7.99 3.57 7.99 7.99s-3.6 7.99-7.99 7.99z" fill="#3c3"/>
<path d="m264.42 235.11c-4.42 0-7.99-3.6-7.99-8.02 0-4.39 3.57-7.99 7.99-7.99h97.48c4.39 0 7.99 3.6 7.99 7.99 0 4.42-3.6 8.02-7.99 8.02z" fill="#3c3"/>
<path d="m264.42 267.23c-4.42 0-7.99-3.6-7.99-7.99 0-4.42 3.57-8.02 7.99-8.02h97.48c4.39 0 7.99 3.6 7.99 8.02 0 4.39-3.6 7.99-7.99 7.99z" fill="#3c3"/>
<path d="m325.17 292.51c6.01 1.36 11.62 3.74 16.7 6.92l4.45-2.27 7.11-3.63 5.67 5.64 5.67 5.67-3.66 7.11-2.27 4.48c3.17 5.05 5.56 10.66 6.92 16.67l4.76 1.53 7.6 2.47v16.01l-7.6 2.47-4.76 1.56c-1.36 5.98-3.74 11.59-6.92 16.67l2.27 4.45 3.66 7.14-5.67 5.64-5.67 5.67-7.11-3.63-4.45-2.27c-5.07 3.17-10.69 5.53-16.7 6.89l-1.53 4.76-2.47 7.6h-16.01l-2.47-7.6-1.56-4.76c-5.98-1.36-11.59-3.71-16.67-6.89l-4.45 2.27-7.11 3.63-5.67-5.67-5.67-5.64 3.63-7.14 2.3-4.45c-3.2-5.07-5.56-10.69-6.92-16.67l-4.76-1.56-7.6-2.47v-16.01l7.6-2.47 4.76-1.53c1.36-6.01 3.71-11.62 6.92-16.67l-2.3-4.48-3.63-7.11 5.67-5.67 5.67-5.64 7.11 3.63 4.45 2.27c5.07-3.17 10.69-5.56 16.67-6.92l1.56-4.76 2.47-7.6h16.01l2.47 7.6z" clip-rule="evenodd" fill="#46bee8" fill-rule="evenodd"/>
<path d="m313.15 373.95c15.9 0 28.83-12.95 28.83-28.83s-12.93-28.83-28.83-28.83c-15.87 0-28.83 12.95-28.83 28.83s12.95 28.83 28.83 28.83z" clip-rule="evenodd" fill="#1180a2" fill-rule="evenodd"/>
<path d="m179.8 125.32h15.9c-10.23 0-18.62 8.36-18.62 18.6v286.89c-8.96-1.33-15.87-9.1-15.87-18.43v-268.46c0-10.23 8.36-18.6 18.59-18.6z" clip-rule="evenodd" fill="#cdd8cf" fill-rule="evenodd"/>
</svg>