<?xml version="1.0" encoding="UTF-8"?>
<svg enable-background="new 0 0 392.598 392.598" version="1.1" viewBox="0 0 392.6 392.6" xml:space="preserve" xmlns="http://www.w3.org/2000/svg">
<path d="m359.86 142.48h-327.11c-6.012 0-10.925 4.848-10.925 10.925v206.42c0 6.012 4.848 10.925 10.925 10.925h327.11c6.012 0 10.925-4.849 10.925-10.925v-206.42c1e-3 -6.077-4.912-10.925-10.924-10.925z" fill="#fff"/>
<rect x="43.604" y="164.27" width="305.32" height="184.63" fill="#56ACE0"/>
<g fill="#194F82">
	<path d="m150.27 270.16c-18.166 0.711-31.612 13.123-31.612 30.901 0 18.101 14.739 31.289 31.612 30.901 18.166-0.711 31.612-13.123 31.612-30.901 0.064-18.101-14.74-31.354-31.612-30.901zm17.842 30.836c-0.711 11.442-7.822 18.941-17.842 19.265-8.792 0.259-18.101-8.339-17.842-19.265h0.065c0.711-11.442 7.822-18.941 17.842-19.265 8.792-0.259 18.101 8.339 17.842 19.265h-0.065z"/>
	<path d="m221.38 270.16c-18.166 0.711-31.612 13.123-31.612 30.901 0 18.101 14.739 31.289 31.612 30.901 18.166-0.711 31.612-13.123 31.612-30.901 0.129-18.101-14.675-31.354-31.612-30.901zm17.907 30.836c-0.711 11.442-7.822 18.941-17.842 19.265-8.792 0.259-18.101-8.339-17.842-19.265h0.065c0.711-11.442 7.822-18.941 17.842-19.265 8.792-0.259 18.101 8.339 17.842 19.265h-0.065z"/>
	<path d="m108.83 291.3c-0.517-15.321-8.404-20.04-26.053-19.846h-22.819v59.798h13.446v-19.071h9.244l13.382 19.071h16.549l-15.191-21.334c7.628-2.78 11.442-9.05 11.442-18.618zm-25.6 9.374h-9.826v-17.713h10.149c6.788 0.129 11.636 0.905 11.636 8.404-0.128 7.369-3.684 9.244-11.959 9.309z"/>
	<polygon points="298.12 304.36 282.6 271.45 264.44 271.45 264.44 331.31 277.88 331.31 277.88 293.62 294.11 326.34 302.06 326.34 318.42 293.62 318.42 331.31 331.86 331.31 331.86 271.45 313.76 271.45"/>
</g>
<path d="m196.3 43.636c6.012 0 10.925-4.848 10.925-10.925 0-6.012-4.848-10.925-10.925-10.925s-10.925 4.848-10.925 10.925 4.913 10.925 10.925 10.925z" fill="#FFC10D"/>
<g fill="#194F82">
	<path d="m359.86 120.7h-35.685l-95.289-90.182c-1.164-17.002-15.321-30.513-32.582-30.513-17.778 0-32.323 14.287-32.711 32l-95.095 88.695h-35.75c-18.036 0-32.711 14.675-32.711 32.711v206.42c0 18.101 14.675 32.776 32.711 32.776h327.11c18.036 0 32.711-14.675 32.711-32.711v-206.48c1e-3 -18.036-14.674-32.711-32.71-32.711zm10.925 239.13c0 6.012-4.848 10.925-10.925 10.925h-327.11c-6.012 0-10.925-4.849-10.925-10.925v-206.42c0-6.012 4.848-10.925 10.925-10.925h327.11c6.012 0 10.925 4.848 10.925 10.925v206.42h1e-3zm-174.48-338.04c6.012 0 10.925 4.848 10.925 10.925s-4.848 10.925-10.925 10.925-10.925-4.848-10.925-10.925 4.913-10.925 10.925-10.925zm-24.566 32.452c6.012 6.853 14.739 11.184 24.566 11.184 10.15 0 19.265-4.655 25.212-11.895l70.853 67.168h-191.87l71.24-66.457z"/>
	<path d="m89.244 193.42c6.335 0 11.636 2.65 15.903 7.952l8.404-9.503c-6.723-7.564-14.998-11.378-24.889-11.378-16.097-0.065-31.741 12.347-31.741 31.418 0 17.261 13.382 31.095 32 31.095 9.244 0 17.39-3.879 24.242-11.572l-8.663-8.857c-4.202 5.236-9.632 7.887-16.226 7.887-11.119-0.453-17.778-9.115-17.455-18.618-0.257-9.955 7.888-18.812 18.425-18.424z"/>
	<polygon points="163.07 230.34 137.34 230.34 137.34 181.92 123.83 181.92 123.83 242.3 163.07 242.3"/>
	<path d="m215.95 242.3h14.352l-26.117-60.444h-13.059l-26.117 60.444h14.352l5.624-13.059h25.341l5.624 13.059zm-25.859-24.824 7.564-17.519 7.499 17.519h-15.063z"/>
	<path d="m317.51 205.9c-7.046-1.939-13.123-3.038-13.382-7.887 0.129-3.879 3.426-6.465 7.24-5.883 5.56 0 10.99 2.004 16.226 5.947l6.788-9.891c-6.012-5.172-14.739-8.21-22.626-7.952-11.572 0-21.721 5.818-21.527 18.036-0.065 13.899 9.18 15.58 20.299 19.135 6.077 1.616 11.83 3.491 11.119 7.564-0.646 4.655-3.685 6.012-7.952 5.947-5.56 0-11.507-2.844-18.101-8.598l-8.016 9.891c7.628 7.111 16.226 10.667 25.794 10.667 12.347 0.711 22.562-7.628 22.109-18.295 0.518-9.824-5.947-15.901-17.971-18.681z"/>
	<path d="m280.53 224.71c0.388-9.956-6.077-15.968-18.101-18.747-7.046-1.939-13.123-3.038-13.382-7.887 0.129-3.879 3.426-6.465 7.24-5.883 5.56 0 10.99 2.004 16.226 5.947l6.788-9.891c-6.012-5.172-14.739-8.21-22.626-7.952-11.572 0-21.721 5.818-21.527 18.036-0.065 13.899 9.18 15.58 20.299 19.135 6.077 1.616 11.83 3.491 11.119 7.564-0.646 4.655-3.685 6.012-7.952 5.947-5.56 0-11.507-2.844-18.101-8.598l-8.016 9.891c7.628 7.111 16.226 10.667 25.794 10.667 12.413 0.777 22.627-7.562 22.239-18.229z"/>
</g>















</svg>
